<svg height="960" viewBox="0 0 960 960" width="960" xmlns="http://www.w3.org/2000/svg"><g fill="none" fill-rule="evenodd"><path d="m930.754807 863.932156c0 30.548747-20.888182 54.150779-46.641884 52.771946l-648.540292-34.722323c-25.753702-1.378832-46.641884-24.983304-46.641884-52.771048v-698.89833c0-27.787744 20.888182-51.3922156 46.641884-52.771048l648.540292-34.7223231c25.753702-1.3788323 46.641884 22.2231989 46.641884 52.7719458z" stroke="#000" stroke-linecap="round" stroke-linejoin="round" stroke-width="20" transform="matrix(-1 0 0 1 1119.685554 0)"/><path d="m734.602697 43 144.734262 12.6342914c28.930434 2.5254251 51.13011 26.7473986 51.13011 55.7878496v729.682549c0 27.963458-20.628313 51.641057-48.328113 55.471995l-147.671887 20.423315.000091-.890968c-3.343997.731769-6.825622 1.025948-10.401538.833504l-645.1971055-34.722323c-25.6209432-1.378832-46.4014475-24.983304-46.4014475-52.771048v-698.89833c0-27.787744 20.7805043-51.3922156 46.4014475-52.771048l645.1971055-34.7223231c3.624504-.1950586 7.152138.109819 10.537773.8635757z" stroke="#000" stroke-linecap="round" stroke-linejoin="round" stroke-width="40" transform="matrix(-1 0 0 1 962.467068 0)"/><g fill="#000"><path d="m544.879688 64.8060744v300.6456446l.083241-.001243c1.248622 28.505608 21.393054 51.13799 46.115766 50.933285 24.722712-.207499 44.867144-23.341974 46.115766-52.310031l.083241-.001243v-2.509374c0-.096514 0-.193029 0-.289543s0-.193029 0-.289543v-301.1248676z" transform="matrix(-1 0 0 1 1182.15739 0)"/><path d="m915.089196 659.078235v34.162855l-72.158449 1.822482v-34.465859zm0-78v34.162855l-72.158449 1.822482v-34.465859zm0-78v34.162855l-72.158449 1.822482v-34.465859z" fill-rule="nonzero"/></g></g></svg>