<?xml version="1.0" encoding="UTF-8" standalone="no"?>
<svg
   height="960"
   viewBox="0 0 960 960"
   width="960"
   version="1.1"
   id="svg5"
   sodipodi:docname="icon.svg"
   inkscape:version="1.3.2 (091e20e, 2023-11-25)"
   xmlns:inkscape="http://www.inkscape.org/namespaces/inkscape"
   xmlns:sodipodi="http://sodipodi.sourceforge.net/DTD/sodipodi-0.dtd"
   xmlns="http://www.w3.org/2000/svg"
   xmlns:svg="http://www.w3.org/2000/svg">
  <defs
     id="defs5">
    <inkscape:path-effect
       effect="perspective-envelope"
       up_left_point="366.33151,204.64737"
       up_right_point="748.07191,226.12271"
       down_left_point="368.00265,440.87605"
       down_right_point="751.83001,426.98024"
       id="path-effect6"
       is_visible="true"
       lpeversion="1"
       deform_type="perspective"
       horizontal_mirror="false"
       vertical_mirror="false"
       overflow_perspective="false" />
  </defs>
  <sodipodi:namedview
     id="namedview5"
     pagecolor="#ffffff"
     bordercolor="#000000"
     borderopacity="0.25"
     inkscape:showpageshadow="2"
     inkscape:pageopacity="0.0"
     inkscape:pagecheckerboard="0"
     inkscape:deskcolor="#d1d1d1"
     showgrid="true"
     inkscape:zoom="0.79166667"
     inkscape:cx="479.36842"
     inkscape:cy="479.36842"
     inkscape:window-width="1744"
     inkscape:window-height="1662"
     inkscape:window-x="0"
     inkscape:window-y="25"
     inkscape:window-maximized="0"
     inkscape:current-layer="g5">
    <inkscape:grid
       id="grid5"
       units="px"
       originx="2.7755576e-17"
       originy="0"
       spacingx="1"
       spacingy="1"
       empcolor="#0099e5"
       empopacity="0.30196078"
       color="#0099e5"
       opacity="0.14901961"
       empspacing="5"
       dotted="false"
       gridanglex="30"
       gridanglez="30"
       visible="true" />
  </sodipodi:namedview>
  <g
     fill="none"
     fill-rule="evenodd"
     id="g5">
    <path
       d="m930.754807 863.932156c0 30.548747-20.888182 54.150779-46.641884 52.771946l-648.540292-34.722323c-25.753702-1.378832-46.641884-24.983304-46.641884-52.771048v-698.89833c0-27.787744 20.888182-51.3922156 46.641884-52.771048l648.540292-34.7223231c25.753702-1.3788323 46.641884 22.2231989 46.641884 52.7719458z"
       stroke="#000"
       stroke-linecap="round"
       stroke-linejoin="round"
       stroke-width="20"
       transform="matrix(-1 0 0 1 1119.685554 0)"
       id="path1" />
    <path
       d="m734.602697 43 144.734262 12.6342914c28.930434 2.5254251 51.13011 26.7473986 51.13011 55.7878496v729.682549c0 27.963458-20.628313 51.641057-48.328113 55.471995l-147.671887 20.423315.000091-.890968c-3.343997.731769-6.825622 1.025948-10.401538.833504l-645.1971055-34.722323c-25.6209432-1.378832-46.4014475-24.983304-46.4014475-52.771048v-698.89833c0-27.787744 20.7805043-51.3922156 46.4014475-52.771048l645.1971055-34.7223231c3.624504-.1950586 7.152138.109819 10.537773.8635757z"
       stroke="#000"
       stroke-linecap="round"
       stroke-linejoin="round"
       stroke-width="40"
       transform="matrix(-1 0 0 1 962.467068 0)"
       id="path2" />
    <g
       fill="#000"
       id="g4">
      <path
         d="M 544.87969,64.806074 V 365.45172 l 0.0832,-0.001 c 1.24862,28.5056 21.39305,51.13799 46.11577,50.93328 24.72271,-0.2075 44.86714,-23.34197 46.11576,-52.31003 l 0.0832,-10e-4 v -2.50938 c 0,-0.0965 0,-0.19303 0,-0.28954 0,-0.0965 0,-0.19303 0,-0.28954 V 59.859159 Z"
         transform="matrix(-1,0,0,1,1182.1574,0)"
         id="path3"
         style="display:none" />
      <path
         d="m 915.0892,659.07823 v 34.16286 l -72.15845,1.82248 v -34.46586 z m 0,-78 v 34.16286 l -72.15845,1.82248 v -34.46586 z m 0,-78 v 34.16286 l -72.15845,1.82248 v -34.46586 z"
         fill-rule="nonzero"
         id="path4"
         style="display:none" />
    </g>
    <path
       style="fill:#000000;stroke-width:0.621042;stroke-dasharray:none;paint-order:fill markers stroke"
       id="rect5"
       width="377.68417"
       height="203.38405"
       x="375.42468"
       y="224.85945"
       ry="31.924006"
       rx="47.157902"
       transform="matrix(1,0,-0.01242141,0.99992285,0,0)"
       inkscape:path-effect="#path-effect6"
       sodipodi:type="rect"
       d="m 421.16374,207.73203 285.59308,16.06644 c 23.08055,1.29843 41.57669,16.30583 41.90195,33.68972 l 2.57831,137.80198 c 0.32834,17.54878 -17.72252,32.35315 -40.90818,33.19255 l -287.14343,10.39553 c -30.27311,1.09599 -55.3006,-14.65043 -55.44672,-35.3067 l -1.14652,-162.06871 c -0.14451,-20.42816 24.48864,-35.46316 54.57151,-33.77081 z" />
  </g>
</svg>
