<svg xmlns="http://www.w3.org/2000/svg" viewBox="0 0 640 512"><!--!Font Awesome Pro 6.5.1 by @fontawesome - https://fontawesome.com License - https://fontawesome.com/license (Commercial License) Copyright 2024 Fonticons, Inc.--><path d="M0 96l32 0 448 0 32 0 0 32 0 64.7c-5.3-.5-10.6-.7-16-.7s-10.7 .2-16 .7l0-64.7L32 128l0 256 288.7 0c1 11 3 21.7 5.9 32L32 416 0 416l0-32L0 128 0 96zm64 64l32 0 224 0 32 0 0 32 0 74.8c-17.3 24.5-28.4 53.7-31.3 85.2l-.7 0L96 352l-32 0 0-32 0-128 0-32zm32 32l0 128 224 0 0-128L96 192zM371.3 296c25.7-44.6 73.3-72 124.7-72s99 27.4 124.7 72s25.7 99.4 0 144S547.4 512 496 512s-99-27.4-124.7-72s-25.7-99.4 0-144zM399 312c-20 34.7-20 77.3 0 112s57 56 97 56s77-21.3 97-56s20-77.3 0-112s-57-56-97-56s-77 21.3-97 56zm65 24l16 0 16 0 16 0 0 16 0 64 16 0 0 32-16 0-32 0-16 0 0-32 16 0 0-48-16 0 0-32zm16-48l32 0 0 32-32 0 0-32zm64-96l32 0 0 19.2c-10.1-5.2-20.8-9.4-32-12.6l0-6.6z"/></svg>