<?xml version="1.0" encoding="UTF-8" standalone="no"?>
<svg
   version="1.1"
   width="200"
   height="200"
   id="svg1"
   sodipodi:docname="icon.svg"
   inkscape:version="1.3.2 (091e20e, 2023-11-25)"
   xmlns:inkscape="http://www.inkscape.org/namespaces/inkscape"
   xmlns:sodipodi="http://sodipodi.sourceforge.net/DTD/sodipodi-0.dtd"
   xmlns="http://www.w3.org/2000/svg"
   xmlns:svg="http://www.w3.org/2000/svg">
  <defs
     id="defs1" />
  <sodipodi:namedview
     id="namedview1"
     borderopacity="0.25"
     inkscape:showpageshadow="2"
     inkscape:pageopacity="0.0"
     inkscape:pagecheckerboard="0"
     inkscape:deskcolor="#d1d1d1"
     inkscape:zoom="3.8"
     inkscape:cx="100"
     inkscape:cy="99.868421"
     inkscape:window-width="1392"
     inkscape:window-height="1212"
     inkscape:window-x="0"
     inkscape:window-y="25"
     inkscape:window-maximized="0"
     inkscape:current-layer="svg1" />
  <path
     d="m 97.7,0.82 c 0,9.56 -0.28,19.17 0.3,28.71 -8.45,-0.05 -16.9,0.02 -25.36,-0.03 -7.82,10.89 -15.49,21.89 -23.29,32.8 18.19,0.02 36.38,0.06 54.57,0.02 1.6,6.58 3.59,13.07 5.96,19.42 -20.17,0.24 -40.35,-0.08 -60.51,0.2 0.01,11.46 0.03,22.92 -0.01,34.38 C 32.33,107.86 16.62,94.25 2.47,81.66 7.23,56.04 22.59,32.78 44.13,18.15 59.87,7.31 78.61,1.36 97.7,0.82 Z"
     fill="#415b96"
     id="path2"
     style="display:inline" />
  <path
     d="m 97.7,0.82 c 12.16,-0.35 24.32,1.52 35.79,5.61 33.04,11.43 58.49,41.12 64.74,75.53 3.82,20.41 1.27,41.95 -7.6,60.75 -4.76,-0.82 -8.92,0.88 -13.62,0.96 -2.16,0.07 -4.37,-0.01 -6.54,-0.07 7.82,-13.15 5.47,-31.82 -5.69,-42.38 -4.44,-4.44 -10.04,-7.09 -16.06,-8.67 6.23,-2.3 11.89,-5.53 16.01,-10.87 6.57,-8.13 8.35,-19.83 3.97,-29.39 -3.38,-7.45 -9.68,-12.6 -16.91,-16.12 -8.62,-4.06 -18.5,-5.88 -27.96,-6.46 C 115.23,29.42 106.61,29.65 98,29.53 97.42,19.99 97.7,10.38 97.7,0.82 Z"
     fill="#6c81ae"
     id="path3"
     style="display:inline" />
  <path
     d="m 98,29.53 c 8.61,0.12 17.23,-0.11 25.83,0.18 9.46,0.58 19.34,2.4 27.96,6.46 7.23,3.52 13.53,8.67 16.91,16.12 4.38,9.56 2.6,21.26 -3.97,29.39 -4.12,5.34 -9.78,8.57 -16.01,10.87 6.02,1.58 11.62,4.23 16.06,8.67 11.16,10.56 13.51,29.23 5.69,42.38 -3.74,6.1 -9.29,10.61 -15.61,13.83 -11.21,5.71 -24.44,7.2 -36.86,7.01 -22.86,0 -45.73,-0.02 -68.59,0.01 -0.08,-16.05 0.01,-32.09 -0.05,-48.13 0.04,-11.46 0.02,-22.92 0.01,-34.38 20.16,-0.28 40.34,0.04 60.51,-0.2 5.04,-0.12 10.08,-0.22 15.13,-0.18 3.03,0.01 5.93,-0.22 8.42,-2.15 4.16,-3.21 4.67,-10.14 1.22,-14.04 -2.28,-2.39 -5.44,-3.04 -8.63,-3.07 -7.37,-0.05 -14.74,0 -22.1,0.02 -18.19,0.04 -36.38,0 -54.57,-0.02 7.8,-10.91 15.47,-21.91 23.29,-32.8 8.46,0.05 16.91,-0.02 25.36,0.03 z"
     fill="#ffffff"
     id="path4"
     style="display:none" />
  <path
     d="m 103.92,62.32 c 7.36,-0.02 14.73,-0.07 22.1,-0.02 3.19,0.03 6.35,0.68 8.63,3.07 3.45,3.9 2.94,10.83 -1.22,14.04 -2.49,1.93 -5.39,2.16 -8.42,2.15 -5.05,-0.04 -10.09,0.06 -15.13,0.18 -2.37,-6.35 -4.36,-12.84 -5.96,-19.42 z"
     fill="#6c81ae"
     id="path9" />
  <path
     d="m 2.47,81.66 c 14.15,12.59 29.86,26.2 46.89,34.66 0.06,16.04 -0.03,32.08 0.05,48.13 22.86,-0.03 45.73,-0.01 68.59,-0.01 12.42,0.19 25.65,-1.3 36.86,-7.01 5.02,4.88 9.8,9.83 15.51,13.93 -7.37,7.23 -15.75,13.39 -24.98,18.03 -19.66,10.13 -42.71,13.19 -64.37,8.92 C 66.19,195.43 52.08,189.07 40.08,179.89 24.22,167.91 12.15,151.04 5.85,132.2 0.4,115.98 -0.66,98.47 2.47,81.66 Z"
     fill="#1d3e83"
     id="path13"
     style="display:inline" />
  <path
     d="m 79.98,111.17 c 14.03,-0.04 28.07,0.05 42.11,-0.04 3.84,6.47 8.44,12.6 11.67,19.4 -4.59,1.54 -9.01,1.12 -13.76,1.17 -13.35,0.01 -26.71,0.01 -40.06,0.02 0,-6.85 -0.05,-13.7 0.04,-20.55 z"
     fill="#415b96"
     id="path15" />
  <path
     d="m 122.09,111.13 c 5.62,-0.16 12.39,-0.36 16.34,4.4 4.16,5.23 1.31,12.69 -4.67,15 -3.23,-6.8 -7.83,-12.93 -11.67,-19.4 z"
     fill="#6c81ae"
     id="path16" />
  <path
     d="m 190.63,142.71 c -5.1,10.62 -11.81,20.4 -20.26,28.65 -5.71,-4.1 -10.49,-9.05 -15.51,-13.93 6.32,-3.22 11.87,-7.73 15.61,-13.83 2.17,0.06 4.38,0.14 6.54,0.07 4.7,-0.08 8.86,-1.78 13.62,-0.96 z"
     fill="#415b96"
     id="path18"
     style="display:inline" />
</svg>
