<?xml version="1.0" encoding="UTF-8" standalone="no"?>
<svg
   version="1.0"
   width="201pt"
   height="201pt"
   viewBox="0 0 201 201"
   preserveAspectRatio="xMidYMid"
   id="svg2"
   sodipodi:docname="BlauHoff (1).svg"
   inkscape:version="1.3.2 (091e20e, 2023-11-25)"
   xmlns:inkscape="http://www.inkscape.org/namespaces/inkscape"
   xmlns:sodipodi="http://sodipodi.sourceforge.net/DTD/sodipodi-0.dtd"
   xmlns="http://www.w3.org/2000/svg"
   xmlns:svg="http://www.w3.org/2000/svg">
  <defs
     id="defs2" />
  <sodipodi:namedview
     id="namedview2"
     pagecolor="#ffffff"
     bordercolor="#000000"
     borderopacity="0.25"
     inkscape:showpageshadow="2"
     inkscape:pageopacity="0.0"
     inkscape:pagecheckerboard="0"
     inkscape:deskcolor="#d1d1d1"
     inkscape:document-units="pt"
     inkscape:zoom="0.67615658"
     inkscape:cx="562"
     inkscape:cy="133.84474"
     inkscape:window-width="1856"
     inkscape:window-height="1262"
     inkscape:window-x="0"
     inkscape:window-y="25"
     inkscape:window-maximized="0"
     inkscape:current-layer="svg2" />
  <metadata
     id="metadata1">
Created by potrace 1.15, written by Peter Selinger 2001-2017
</metadata>
  <rect
     style="display:inline;opacity:0.97;fill:#f9f9f9;stroke-width:0.75"
     id="rect2"
     width="633.35919"
     height="604.51971"
     x="-183.01974"
     y="-189.675" />
  <g
     transform="matrix(0.1,0,0,-0.1,-14.419737,198.78158)"
     fill="#000000"
     stroke="none"
     id="g2"
     style="fill:#f9f9f9">
    <path
       d="M 0,1005 V 0 H 4215 8430 V 1005 2010 H 4215 0 Z m 1323,695 c 152,-22 275,-86 334,-173 91,-135 54,-301 -88,-398 -33,-22 -59,-42 -59,-44 0,-3 23,-16 50,-30 95,-48 159,-135 180,-245 37,-191 -84,-351 -315,-417 -51,-14 -122,-17 -478,-21 -314,-2 -422,0 -433,9 -12,10 -14,74 -14,398 0,288 3,390 12,399 9,9 109,12 390,12 418,0 434,2 457,59 19,43 6,97 -27,119 -23,15 -67,18 -411,22 -356,5 -386,6 -389,22 -3,18 153,247 190,281 18,15 46,17 277,17 141,0 286,-5 324,-10 z"
       id="path1"
       style="display:inline;fill:#f9f9f9" />
    <path
       d="m 983,902 -183,-2 v -99 c 0,-81 3,-100 16,-105 9,-3 124,-6 257,-6 224,0 244,2 275,20 18,11 39,35 48,53 14,30 14,37 0,70 -27,66 -77,74 -413,69 z"
       id="path2"
       style="display:inline;opacity:0.97;fill:#f9f9f9"
       inkscape:label="path2" />
  </g>
</svg>
