<?xml version="1.0" encoding="UTF-8" standalone="no"?>
<svg
   version="1.1"
   width="220"
   height="220"
   style="clip-rule:evenodd;fill-rule:evenodd;image-rendering:optimizeQuality;shape-rendering:geometricPrecision;text-rendering:geometricPrecision"
   id="svg22"
   sodipodi:docname="BlauHoff.svg"
   inkscape:version="1.3.2 (091e20e, 2023-11-25)"
   xmlns:inkscape="http://www.inkscape.org/namespaces/inkscape"
   xmlns:sodipodi="http://sodipodi.sourceforge.net/DTD/sodipodi-0.dtd"
   xmlns="http://www.w3.org/2000/svg"
   xmlns:svg="http://www.w3.org/2000/svg">
  <defs
     id="defs22" />
  <sodipodi:namedview
     id="namedview22"
     pagecolor="#ffffff"
     bordercolor="#000000"
     borderopacity="0.25"
     inkscape:showpageshadow="2"
     inkscape:pageopacity="0.0"
     inkscape:pagecheckerboard="0"
     inkscape:deskcolor="#d1d1d1"
     inkscape:zoom="0.90154211"
     inkscape:cx="246.24474"
     inkscape:cy="100.38355"
     inkscape:window-width="1392"
     inkscape:window-height="1212"
     inkscape:window-x="0"
     inkscape:window-y="25"
     inkscape:window-maximized="0"
     inkscape:current-layer="svg22" />
  <g
     id="g1"
     style="display:inline"
     transform="translate(12,10)">
    <path
       style="opacity:0.997"
       fill="#4d659d"
       d="m 93.5,-0.5 c 1.3333,0 2.6667,0 4,0 0,9.66667 0,19.3333 0,29 -8.8494,-0.3264 -17.5161,0.007 -26,1 0,0.6667 -0.3333,1 -1,1 -2.3906,-3.2237 -3.3906,-6.8904 -3,-11 -1.3333,0 -2.6667,0 -4,0 0.2563,-2.4372 0.9229,-4.7706 2,-7 -2.0355,-1.385 -4.0355,-2.71835 -6,-4 10.8564,-4.88047 22.1897,-7.880474 34,-9 z"
       id="path1" />
  </g>
  <g
     id="g2"
     style="display:inline"
     transform="translate(12,10)">
    <path
       style="opacity:1"
       fill="#7487b1"
       d="m 97.5,-0.5 c 2.667,0 5.333,0 8,0 43.447,4.56393 73.113,27.2306 89,68 -0.934,1.0676 -1.268,2.401 -1,4 -2,0 -4,0 -6,0 0,-1.3333 0,-2.6667 0,-4 -4,0 -8,0 -12,0 0.32,3.3984 -0.013,6.7317 -1,10 -0.966,-1.896 -1.299,-3.896 -1,-6 -1,0 -2,0 -3,0 0.475,2.8126 -0.525,4.8126 -3,6 7.053,-18.1413 2.053,-31.808 -15,-41 -7.164,-3.8631 -14.83,-6.0297 -23,-6.5 -19.33,-0.5 -38.6638,-0.6666 -58,-0.5 8.4839,-0.993 17.1506,-1.3264 26,-1 0,-9.6667 0,-19.33333 0,-29 z"
       id="path2" />
  </g>
  <g
     id="g3"
     style="display:inline"
     transform="translate(12,10)">
    <path
       style="opacity:1"
       fill="#fdfefe"
       d="m 71.5,29.5 c 19.3362,-0.1666 38.67,0 58,0.5 8.17,0.4703 15.836,2.6369 23,6.5 17.053,9.192 22.053,22.8587 15,41 -4.724,6.8838 -11.057,11.7171 -19,14.5 21.83,7.8257 29.83,22.992 24,45.5 -1.233,3.235 -2.899,6.235 -5,9 -3.777,4.379 -8.11,8.046 -13,11 -8.767,3.109 -17.767,5.109 -27,6 -26,0 -52,0 -78,0 0,-27.333 0,-54.667 0,-82 19.6667,0 39.3333,0 59,0 7.753,0.3961 15.42,-0.1039 23,-1.5 7.265,-7.0499 6.598,-13.0499 -2,-18 -26.665,-0.5 -53.3313,-0.6666 -80,-0.5 7.2475,-10.1604 14.2475,-20.4937 21,-31 0.6667,0 1,-0.3333 1,-1 z"
       id="path3" />
  </g>
  <g
     id="g4"
     style="display:none">
    <path
       style="opacity:0.999"
       fill="#1e3e82"
       d="m 842.5,48.5 c 0,1.3333 0,2.6667 0,4 -4.33,7.327 -8.164,14.9936 -11.5,23 -8.447,-6.6017 -14.28,-4.935 -17.5,5 5.628,0.9954 11.294,1.3288 17,1 0,7.6667 0,15.3333 0,23 -5.667,0 -11.333,0 -17,0 0,20 0,40 0,60 -12,0 -24,0 -36,0 0,-20 0,-40 0,-60 -4,0 -8,0 -12,0 0,-7.6667 0,-15.3333 0,-23 4,0 8,0 12,0 -1.988,-26.1799 10.179,-38.8466 36.5,-38 9.842,-0.1979 19.342,1.4688 28.5,5 z"
       id="path4" />
  </g>
  <g
     id="g5"
     style="display:none">
    <path
       style="opacity:1"
       fill="#1e3e82"
       d="m 734.5,43.5 c 7.674,-0.1664 15.341,3e-4 23,0.5 6.438,0.8128 12.438,2.8128 18,6 -4.567,8.3002 -8.733,16.8002 -12.5,25.5 -8.447,-6.6017 -14.28,-4.935 -17.5,5 5.628,0.9954 11.294,1.3288 17,1 0,7.6667 0,15.3333 0,23 -5.667,0 -11.333,0 -17,0 0,20 0,40 0,60 -12,0 -24,0 -36,0 0,-20 0,-40 0,-60 -4,0 -8,0 -12,0 0,-7.6667 0,-15.3333 0,-23 4,0 8,0 12,0 -2.604,-20.1766 5.729,-32.8432 25,-38 z"
       id="path5" />
  </g>
  <g
     id="g6"
     style="display:none">
    <path
       style="opacity:1"
       fill="#1e3e82"
       d="m 475.5,52.5 c 12.333,0 24.667,0 37,0 0,14.3333 0,28.6667 0,43 11.667,0 23.333,0 35,0 0,-14.3333 0,-28.6667 0,-43 12.333,0 24.667,0 37,0 0,37.3333 0,74.667 0,112 -12.333,0 -24.667,0 -37,0 0,-13.333 0,-26.667 0,-40 -11.667,0 -23.333,0 -35,0 0,13.333 0,26.667 0,40 -12.333,0 -24.667,0 -37,0 0,-37.333 0,-74.6667 0,-112 z"
       id="path6" />
  </g>
  <g
     id="g7"
     style="display:inline"
     transform="translate(12,10)">
    <path
       style="opacity:0.999"
       fill="#3a5592"
       d="m 10.5,54.5 c 2.1621,0.3972 3.4954,1.7305 4,4 1.5709,0.8094 3.2376,1.1427 5,1 0,1.3333 0,2.6667 0,4 4,0 8,0 12,0 0,-2.6667 0,-5.3333 0,-8 2.6667,0 5.3333,0 8,0 0,2.6667 0,5.3333 0,8 2.3568,-0.1633 4.6902,0.0034 7,0.5 0.8366,1.0113 1.17,2.1779 1,3.5 1.3333,0 2.6667,0 4,0 0,1.3333 0,2.6667 0,4 -4,0 -8,0 -12,0 0,2.6667 0,5.3333 0,8 2.6194,-0.2683 5.1194,0.065 7.5,1 1.0875,-2.4316 1.5875,-2.0983 1.5,1 0,11.3333 0,22.667 0,34 C 31.5608,106.755 16.3941,95.4218 3,81.5 c -0.23555,1.6193 -1.06888,2.6193 -2.5,3 1.93373,-10.4679 5.26706,-20.4679 10,-30 z"
       id="path7" />
  </g>
  <g
     id="g8"
     style="display:inline"
     transform="translate(12,10)">
    <path
       style="opacity:1"
       fill="#435d96"
       d="m 59.5,8.5 c 1.9645,1.28165 3.9645,2.615 6,4 -1.0771,2.2294 -1.7437,4.5628 -2,7 1.3333,0 2.6667,0 4,0 -0.3906,4.1096 0.6094,7.7763 3,11 -6.7525,10.5063 -13.7525,20.8396 -21,31 17.8256,0.9968 35.8256,1.3301 54,1 1.818,6.2718 3.485,12.6051 5,19 -19.6667,0 -39.3333,0 -59,0 -0.3333,0 -0.6667,0 -1,0 0.0875,-3.0983 -0.4125,-3.4316 -1.5,-1 -2.3806,-0.935 -4.8806,-1.2683 -7.5,-1 0,-2.6667 0,-5.3333 0,-8 4,0 8,0 12,0 0,-1.3333 0,-2.6667 0,-4 -1.3333,0 -2.6667,0 -4,0 0.17,-1.3221 -0.1634,-2.4887 -1,-3.5 -2.3098,-0.4966 -4.6432,-0.6633 -7,-0.5 0,-2.6667 0,-5.3333 0,-8 -2.6667,0 -5.3333,0 -8,0 0,2.6667 0,5.3333 0,8 -4,0 -8,0 -12,0 0,-1.3333 0,-2.6667 0,-4 -1.7624,0.1427 -3.4291,-0.1906 -5,-1 -0.5046,-2.2695 -1.8379,-3.6028 -4,-4 10.9693,-20.9954 27.3026,-36.3287 49,-46 z"
       id="path8" />
  </g>
  <g
     id="g9"
     style="display:none">
    <path
       style="opacity:1"
       fill="#1e3e82"
       d="m 249.5,45.5 c 1.333,0 2.667,0 4,0 0,39.6667 0,79.333 0,119 -11.667,0 -23.333,0 -35,0 0,-39.333 0,-78.6667 0,-118 10.514,0.3276 20.847,-0.0058 31,-1 z"
       id="path9" />
  </g>
  <g
     id="g10"
     style="display:inline"
     transform="translate(12,10)">
    <path
       style="opacity:1"
       fill="#687eab"
       d="m 49.5,61.5 c 26.6687,-0.1666 53.335,0 80,0.5 8.598,4.9501 9.265,10.9501 2,18 -7.58,1.3961 -15.247,1.8961 -23,1.5 -1.515,-6.3949 -3.182,-12.7282 -5,-19 -18.1744,0.3301 -36.1744,-0.0032 -54,-1 z"
       id="path10" />
  </g>
  <g
     id="g11"
     style="display:inline"
     transform="translate(12,10)">
    <path
       style="opacity:1"
       fill="#6b80ad"
       d="m 194.5,67.5 c 4.687,14.9562 6.187,30.2895 4.5,46 -0.487,4.965 -1.654,9.632 -3.5,14 -0.268,-2.619 0.065,-5.119 1,-7.5 -0.525,-0.692 -1.192,-1.192 -2,-1.5 -1.571,0.809 -3.238,1.143 -5,1 -0.667,-2.667 -1.333,-5.333 -2,-8 -2.667,0 -5.333,0 -8,0 0,-1.333 0,-2.667 0,-4 -1.333,0 -2.667,0 -4,0 1.581,10.44 1.081,20.774 -1.5,31 -0.383,-0.556 -0.883,-0.889 -1.5,-1 5.83,-22.508 -2.17,-37.6743 -24,-45.5 7.943,-2.7829 14.276,-7.6162 19,-14.5 2.475,-1.1874 3.475,-3.1874 3,-6 1,0 2,0 3,0 -0.299,2.104 0.034,4.104 1,6 0.987,-3.2683 1.32,-6.6016 1,-10 4,0 8,0 12,0 0,1.3333 0,2.6667 0,4 2,0 4,0 6,0 -0.268,-1.599 0.066,-2.9324 1,-4 z"
       id="path11" />
  </g>
  <g
     id="g12"
     style="display:none">
    <path
       style="opacity:0.998"
       fill="#1e3e82"
       d="m 632.5,76.5 c 16.594,-2.5151 31.927,0.6515 46,9.5 15.068,14.775 19.234,32.275 12.5,52.5 -4.5,11.167 -12.333,19 -23.5,23.5 -19.896,6.706 -38.896,4.706 -57,-6 -14.708,-13.994 -19.208,-30.827 -13.5,-50.5 6.37,-16.4255 18.203,-26.0921 35.5,-29 z m 9,29 c 10.457,0.125 15.457,5.459 15,16 -0.294,13.458 -6.627,17.958 -19,13.5 -2.394,-1.952 -3.894,-4.452 -4.5,-7.5 -2.895,-9.836 -0.061,-17.169 8.5,-22 z"
       id="path12" />
  </g>
  <g
     id="g13"
     style="display:none">
    <path
       style="opacity:0.999"
       fill="#1e3d82"
       d="m 300.5,75.5 c 10.057,-0.3645 20.057,0.1355 30,1.5 13.861,3.526 21.695,12.3593 23.5,26.5 0.5,20.331 0.667,40.664 0.5,61 -12,0 -24,0 -36,0 0.163,-2.357 -0.003,-4.69 -0.5,-7 -3.834,4.493 -8.667,7.326 -14.5,8.5 -29.837,3.832 -42.337,-9.002 -37.5,-38.5 5.128,-9.822 13.294,-14.988 24.5,-15.5 8.994,-0.5 17.994,-0.666 27,-0.5 0.028,-2.082 -0.639,-3.916 -2,-5.5 -3.414,-1.937 -7.081,-3.104 -11,-3.5 -9.192,1.215 -18.192,3.215 -27,6 -1.857,-7.073 -4.024,-14.0726 -6.5,-21 -0.667,-1.3333 -0.667,-2.6667 0,-4 9.664,-3.7055 19.497,-6.3722 29.5,-8 z m 6,53 c 4,0 8,0 12,0 -0.189,11.439 -5.855,15.605 -17,12.5 -2.004,-2.841 -2.504,-6.007 -1.5,-9.5 2.166,-1.231 4.333,-2.231 6.5,-3 z"
       id="path13" />
  </g>
  <g
     id="g14"
     style="display:none">
    <path
       style="opacity:1"
       fill="#1e3e82"
       d="m 423.5,121.5 c 0.996,-14.157 1.329,-28.4903 1,-43 11.333,0 22.667,0 34,0 0,28.667 0,57.333 0,86 -11.667,0 -23.333,0 -35,0 0.165,-3.35 -0.002,-6.683 -0.5,-10 -6.471,8.567 -15.138,12.567 -26,12 -16.505,0.164 -26.505,-7.836 -30,-24 -0.5,-21.664 -0.667,-43.3308 -0.5,-65 12,0 24,0 36,0 -0.441,16.7233 0.059,33.39 1.5,50 2.354,5.595 6.521,7.428 12.5,5.5 1.431,-0.465 2.597,-1.299 3.5,-2.5 1.604,-2.959 2.771,-5.959 3.5,-9 z"
       id="path14" />
  </g>
  <g
     id="g15"
     style="display:none">
    <path
       style="opacity:1"
       fill="#263d70"
       d="m 458.5,164.5 c 0,-28.667 0,-57.333 0,-86 -11.333,0 -22.667,0 -34,0 0.329,14.5097 -0.004,28.843 -1,43 0,-14.667 0,-29.3333 0,-44 12,0 24,0 36,0 0.331,29.171 -0.002,58.171 -1,87 z"
       id="path15" />
  </g>
  <g
     id="g16"
     style="display:none">
    <path
       style="opacity:1"
       fill="#243e70"
       d="m 249.5,45.5 c -10.153,0.9942 -20.486,1.3276 -31,1 0,39.3333 0,78.667 0,118 -0.999,-39.496 -1.332,-79.1632 -1,-119 10.667,0 21.333,0 32,0 z"
       id="path16" />
  </g>
  <g
     id="g17"
     style="display:inline"
     transform="translate(12,10)">
    <path
       style="opacity:1"
       fill="#425b96"
       d="m 79.5,111.5 c 14.3372,-0.167 28.671,0 43,0.5 2.407,4.746 5.24,9.246 8.5,13.5 0.613,1.995 0.113,3.662 -1.5,5 -16.492,0.997 -33.1583,1.33 -50,1 0,-6.667 0,-13.333 0,-20 z"
       id="path17" />
  </g>
  <g
     id="g18"
     transform="translate(12,10)">
    <path
       style="opacity:1"
       fill="#5d73a2"
       d="m 79.5,111.5 c 8.1598,-0.666 16.4932,-1 25,-1 9.723,-0.113 19.39,0.387 29,1.5 6.775,4.175 7.775,9.508 3,16 -2.15,1.411 -4.484,2.245 -7,2.5 1.613,-1.338 2.113,-3.005 1.5,-5 -3.26,-4.254 -6.093,-8.754 -8.5,-13.5 -14.329,-0.5 -28.6628,-0.667 -43,-0.5 z"
       id="path18" />
  </g>
  <g
     id="g19"
     transform="translate(12,10)">
    <path
       style="opacity:1"
       fill="#6278a9"
       d="m 195.5,127.5 c -0.814,5.292 -2.48,10.292 -5,15 -8.128,-0.188 -15.795,1.145 -23,4 2.101,-2.765 3.767,-5.765 5,-9 0.617,0.111 1.117,0.444 1.5,1 2.581,-10.226 3.081,-20.56 1.5,-31 1.333,0 2.667,0 4,0 0,1.333 0,2.667 0,4 2.667,0 5.333,0 8,0 0.667,2.667 1.333,5.333 2,8 1.762,0.143 3.429,-0.191 5,-1 0.808,0.308 1.475,0.808 2,1.5 -0.935,2.381 -1.268,4.881 -1,7.5 z"
       id="path19" />
  </g>
  <g
     id="g20"
     transform="translate(12,10)">
    <path
       style="opacity:1"
       fill="#3c5792"
       d="m 190.5,142.5 c -5.391,11.459 -12.724,21.459 -22,30 -3.961,-5.629 -8.627,-10.629 -14,-15 4.89,-2.954 9.223,-6.621 13,-11 7.205,-2.855 14.872,-4.188 23,-4 z"
       id="path20" />
  </g>
  <g
     id="g21"
     style="display:inline"
     transform="translate(12,10)">
    <path
       style="opacity:1"
       fill="#899dc8"
       d="m 48.5,81.5 c 0.3333,0 0.6667,0 1,0 0,27.333 0,54.667 0,82 26,0 52,0 78,0 -26.161,0.998 -52.4947,1.331 -79,1 0,-16.333 0,-32.667 0,-49 0,-11.333 0,-22.6667 0,-34 z"
       id="path21" />
  </g>
  <g
     id="g22"
     style="display:inline"
     transform="translate(12,10)">
    <path
       style="opacity:0.999"
       fill="#1e3e82"
       d="m 48.5,115.5 c 0,16.333 0,32.667 0,49 26.5053,0.331 52.839,-0.002 79,-1 9.233,-0.891 18.233,-2.891 27,-6 5.373,4.371 10.039,9.371 14,15 -17.679,16.67 -38.679,26.003 -63,28 -4,0 -8,0 -12,0 -54.5387,-7.539 -85.87207,-38.539 -94,-93 0,-5 0,-10 0,-15 0.973067,-2.4479 1.3064,-5.1146 1,-8 1.43112,-0.3807 2.26445,-1.3807 2.5,-3 13.3941,13.9218 28.5608,25.255 45.5,34 z"
       id="path22" />
  </g>
</svg>
